<?xml version="1.0" encoding="UTF-8" standalone="no"?>
<!DOCTYPE svg PUBLIC "-//W3C//DTD SVG 1.1//EN"
 "http://www.w3.org/Graphics/SVG/1.1/DTD/svg11.dtd">
<!-- Generated by graphviz version 2.40.1 (20161225.0304)
 -->
<!-- Title: dependencies Pages: 1 -->
<svg width="1592pt" height="284pt"
 viewBox="0.00 0.00 1592.00 284.00" xmlns="http://www.w3.org/2000/svg" xmlns:xlink="http://www.w3.org/1999/xlink">
<g id="graph0" class="graph" transform="scale(1 1) rotate(0) translate(4 280)">
<title>dependencies</title>
<polygon fill="#ffffff" stroke="transparent" points="-4,4 -4,-280 1588,-280 1588,4 -4,4"/>
<text text-anchor="start" x="771.0091" y="-42.4" font-family="sans-serif" font-weight="bold" font-size="14.00" fill="#000000">Legend</text>
<polygon fill="#ffffb3" stroke="transparent" points="558,-10 558,-30 578,-30 578,-10 558,-10"/>
<text text-anchor="start" x="581.629" y="-15.4" font-family="sans-serif" font-size="14.00" fill="#000000"> &#160;Declarations</text>
<polygon fill="#8dd3c7" stroke="transparent" points="671,-10 671,-30 691,-30 691,-10 671,-10"/>
<text text-anchor="start" x="694.7251" y="-15.4" font-family="sans-serif" font-size="14.00" fill="#000000"> &#160;Module</text>
<polygon fill="#80b1d3" stroke="transparent" points="757,-10 757,-30 777,-30 777,-10 757,-10"/>
<text text-anchor="start" x="780.7812" y="-15.4" font-family="sans-serif" font-size="14.00" fill="#000000"> &#160;Bootstrap</text>
<polygon fill="#fdb462" stroke="transparent" points="854,-10 854,-30 874,-30 874,-10 854,-10"/>
<text text-anchor="start" x="877.6732" y="-15.4" font-family="sans-serif" font-size="14.00" fill="#000000"> &#160;Providers</text>
<polygon fill="#fb8072" stroke="transparent" points="950,-10 950,-30 970,-30 970,-10 950,-10"/>
<text text-anchor="start" x="973.7258" y="-15.4" font-family="sans-serif" font-size="14.00" fill="#000000"> &#160;Exports</text>
<g id="clust1" class="cluster">
<title>cluster_AppModule</title>
<polygon fill="none" stroke="#000000" stroke-dasharray="1,5" points="8,-70 8,-268 1576,-268 1576,-70 8,-70"/>
</g>
<g id="clust2" class="cluster">
<title>cluster_AppModule_declarations</title>
<polygon fill="none" stroke="#000000" points="16,-78 16,-130 1568,-130 1568,-78 16,-78"/>
</g>
<g id="clust14" class="cluster">
<title>cluster_AppModule_bootstrap</title>
<polygon fill="none" stroke="#000000" points="793,-208 793,-260 917,-260 917,-208 793,-208"/>
</g>
<!-- AppComponent -->
<g id="node1" class="node">
<title>AppComponent</title>
<polygon fill="#ffffb3" stroke="#000000" points="1559.9399,-122 1454.0601,-122 1454.0601,-86 1559.9399,-86 1559.9399,-122"/>
<text text-anchor="middle" x="1507" y="-99.8" font-family="Times,serif" font-size="14.00" fill="#000000">AppComponent</text>
</g>
<!-- AppModule -->
<g id="node10" class="node">
<title>AppModule</title>
<polygon fill="#8dd3c7" stroke="#000000" points="896.6571,-187 893.6571,-191 872.6571,-191 869.6571,-187 813.3429,-187 813.3429,-151 896.6571,-151 896.6571,-187"/>
<text text-anchor="middle" x="855" y="-164.8" font-family="Times,serif" font-size="14.00" fill="#000000">AppModule</text>
</g>
<!-- AppComponent&#45;&gt;AppModule -->
<g id="edge1" class="edge">
<title>AppComponent&#45;&gt;AppModule</title>
<path fill="none" stroke="#000000" d="M1507,-122.0109C1507,-144.4852 1507,-180 1507,-180 1507,-180 906.7774,-180 906.7774,-180"/>
<polygon fill="#000000" stroke="#000000" points="906.7774,-176.5001 896.7774,-180 906.7773,-183.5001 906.7774,-176.5001"/>
</g>
<!-- DashboardComponent -->
<g id="node2" class="node">
<title>DashboardComponent</title>
<polygon fill="#ffffb3" stroke="#000000" points="1435.9734,-122 1294.0266,-122 1294.0266,-86 1435.9734,-86 1435.9734,-122"/>
<text text-anchor="middle" x="1365" y="-99.8" font-family="Times,serif" font-size="14.00" fill="#000000">DashboardComponent</text>
</g>
<!-- DashboardComponent&#45;&gt;AppModule -->
<g id="edge2" class="edge">
<title>DashboardComponent&#45;&gt;AppModule</title>
<path fill="none" stroke="#000000" d="M1365,-122.1289C1365,-142.5724 1365,-173 1365,-173 1365,-173 906.7354,-173 906.7354,-173"/>
<polygon fill="#000000" stroke="#000000" points="906.7355,-169.5001 896.7354,-173 906.7354,-176.5001 906.7355,-169.5001"/>
</g>
<!-- ItemDetailsComponent -->
<g id="node3" class="node">
<title>ItemDetailsComponent</title>
<polygon fill="#ffffb3" stroke="#000000" points="1276.1414,-122 1129.8586,-122 1129.8586,-86 1276.1414,-86 1276.1414,-122"/>
<text text-anchor="middle" x="1203" y="-99.8" font-family="Times,serif" font-size="14.00" fill="#000000">ItemDetailsComponent</text>
</g>
<!-- ItemDetailsComponent&#45;&gt;AppModule -->
<g id="edge3" class="edge">
<title>ItemDetailsComponent&#45;&gt;AppModule</title>
<path fill="none" stroke="#000000" d="M1203,-122.2667C1203,-140.5552 1203,-166 1203,-166 1203,-166 906.9769,-166 906.9769,-166"/>
<polygon fill="#000000" stroke="#000000" points="906.977,-162.5001 896.9769,-166 906.9769,-169.5001 906.977,-162.5001"/>
</g>
<!-- ItemListFilmComponent -->
<g id="node4" class="node">
<title>ItemListFilmComponent</title>
<polygon fill="#ffffb3" stroke="#000000" points="1111.7218,-122 956.2782,-122 956.2782,-86 1111.7218,-86 1111.7218,-122"/>
<text text-anchor="middle" x="1034" y="-99.8" font-family="Times,serif" font-size="14.00" fill="#000000">ItemListFilmComponent</text>
</g>
<!-- ItemListFilmComponent&#45;&gt;AppModule -->
<g id="edge4" class="edge">
<title>ItemListFilmComponent&#45;&gt;AppModule</title>
<path fill="none" stroke="#000000" d="M1034,-122.0091C1034,-138.0494 1034,-159 1034,-159 1034,-159 906.9675,-159 906.9675,-159"/>
<polygon fill="#000000" stroke="#000000" points="906.9676,-155.5001 896.9675,-159 906.9675,-162.5001 906.9676,-155.5001"/>
</g>
<!-- ItemListPeopleComponent -->
<g id="node5" class="node">
<title>ItemListPeopleComponent</title>
<polygon fill="#ffffb3" stroke="#000000" points="938.3697,-122 771.6303,-122 771.6303,-86 938.3697,-86 938.3697,-122"/>
<text text-anchor="middle" x="855" y="-99.8" font-family="Times,serif" font-size="14.00" fill="#000000">ItemListPeopleComponent</text>
</g>
<!-- ItemListPeopleComponent&#45;&gt;AppModule -->
<g id="edge5" class="edge">
<title>ItemListPeopleComponent&#45;&gt;AppModule</title>
<path fill="none" stroke="#000000" d="M855,-122.1061C855,-122.1061 855,-140.991 855,-140.991"/>
<polygon fill="#000000" stroke="#000000" points="851.5001,-140.9909 855,-150.991 858.5001,-140.991 851.5001,-140.9909"/>
</g>
<!-- ItemListPlanetComponent -->
<g id="node6" class="node">
<title>ItemListPlanetComponent</title>
<polygon fill="#ffffb3" stroke="#000000" points="753.7604,-122 590.2396,-122 590.2396,-86 753.7604,-86 753.7604,-122"/>
<text text-anchor="middle" x="672" y="-99.8" font-family="Times,serif" font-size="14.00" fill="#000000">ItemListPlanetComponent</text>
</g>
<!-- ItemListPlanetComponent&#45;&gt;AppModule -->
<g id="edge6" class="edge">
<title>ItemListPlanetComponent&#45;&gt;AppModule</title>
<path fill="none" stroke="#000000" d="M672,-122.0091C672,-138.0494 672,-159 672,-159 672,-159 803.0161,-159 803.0161,-159"/>
<polygon fill="#000000" stroke="#000000" points="803.0161,-162.5001 813.0161,-159 803.0161,-155.5001 803.0161,-162.5001"/>
</g>
<!-- ItemListSpecieComponent -->
<g id="node7" class="node">
<title>ItemListSpecieComponent</title>
<polygon fill="#ffffb3" stroke="#000000" points="572.0842,-122 405.9158,-122 405.9158,-86 572.0842,-86 572.0842,-122"/>
<text text-anchor="middle" x="489" y="-99.8" font-family="Times,serif" font-size="14.00" fill="#000000">ItemListSpecieComponent</text>
</g>
<!-- ItemListSpecieComponent&#45;&gt;AppModule -->
<g id="edge7" class="edge">
<title>ItemListSpecieComponent&#45;&gt;AppModule</title>
<path fill="none" stroke="#000000" d="M489,-122.2667C489,-140.5552 489,-166 489,-166 489,-166 803.0151,-166 803.0151,-166"/>
<polygon fill="#000000" stroke="#000000" points="803.0152,-169.5001 813.0151,-166 803.0151,-162.5001 803.0152,-169.5001"/>
</g>
<!-- ItemListStarshipComponent -->
<g id="node8" class="node">
<title>ItemListStarshipComponent</title>
<polygon fill="#ffffb3" stroke="#000000" points="388.1511,-122 213.8489,-122 213.8489,-86 388.1511,-86 388.1511,-122"/>
<text text-anchor="middle" x="301" y="-99.8" font-family="Times,serif" font-size="14.00" fill="#000000">ItemListStarshipComponent</text>
</g>
<!-- ItemListStarshipComponent&#45;&gt;AppModule -->
<g id="edge8" class="edge">
<title>ItemListStarshipComponent&#45;&gt;AppModule</title>
<path fill="none" stroke="#000000" d="M301,-122.1289C301,-142.5724 301,-173 301,-173 301,-173 802.9052,-173 802.9052,-173"/>
<polygon fill="#000000" stroke="#000000" points="802.9053,-176.5001 812.9052,-173 802.9052,-169.5001 802.9053,-176.5001"/>
</g>
<!-- ItemListVehicleComponent -->
<g id="node9" class="node">
<title>ItemListVehicleComponent</title>
<polygon fill="#ffffb3" stroke="#000000" points="196.2991,-122 23.7009,-122 23.7009,-86 196.2991,-86 196.2991,-122"/>
<text text-anchor="middle" x="110" y="-99.8" font-family="Times,serif" font-size="14.00" fill="#000000">ItemListVehicleComponent</text>
</g>
<!-- ItemListVehicleComponent&#45;&gt;AppModule -->
<g id="edge9" class="edge">
<title>ItemListVehicleComponent&#45;&gt;AppModule</title>
<path fill="none" stroke="#000000" d="M110,-122.0109C110,-144.4852 110,-180 110,-180 110,-180 803.0805,-180 803.0805,-180"/>
<polygon fill="#000000" stroke="#000000" points="803.0805,-183.5001 813.0805,-180 803.0804,-176.5001 803.0805,-183.5001"/>
</g>
<!-- AppComponent  -->
<g id="node11" class="node">
<title>AppComponent </title>
<polygon fill="#80b1d3" stroke="#000000" points="909.439,-252 800.561,-252 800.561,-216 909.439,-216 909.439,-252"/>
<text text-anchor="middle" x="855" y="-229.8" font-family="Times,serif" font-size="14.00" fill="#000000">AppComponent </text>
</g>
<!-- AppModule&#45;&gt;AppComponent  -->
<g id="edge10" class="edge">
<title>AppModule&#45;&gt;AppComponent </title>
<path fill="none" stroke="#000000" stroke-dasharray="1,5" d="M855,-187.1061C855,-187.1061 855,-205.991 855,-205.991"/>
<polygon fill="#000000" stroke="#000000" points="851.5001,-205.9909 855,-215.991 858.5001,-205.991 851.5001,-205.9909"/>
</g>
</g>
</svg>
